# xmcd CD database file
#
# Track frame offsets:
#	150
#	16445
#	54490
#
# Disc length: 1197 seconds
#
# Revision: 0
# Processed by: cddbd v1.5PL3 Copyright (c) Steve Scherf et al.
# Submitted via: CDex 1.50Beta7
#
DISCID=1d04ab03
DTITLE=Micro De Govia - Epic Monolith
DYEAR=2001
DGENRE=Trance
TTITLE0=Epic Monolith (Radio Edit)
TTITLE1=Epic Monolith (Original Mix)
TTITLE2=Epic Monolith (Sonorous' Epic Dub)
EXTD=YEAR: 2001
EXTT0=
EXTT1=
EXTT2=
PLAYORDER=
